
<svg width="73px" height="72px" viewBox="685 761 73 72" version="1.1" xmlns="http://www.w3.org/2000/svg" xmlns:xlink="http://www.w3.org/1999/xlink">
    <!-- Generator: Sketch 41 (35326) - http://www.bohemiancoding.com/sketch -->
    <desc>Created with Sketch.</desc>
    <defs></defs>
    <path d="M746.059993,820.46436 L735.512759,810.761216 C734.858243,810.159731 734.825439,809.141481 735.442465,808.500304 C736.05949,807.860653 737.101404,807.830121 737.757482,808.433133 L748.304717,818.13475 C748.959233,818.737762 748.990474,819.754485 748.373449,820.395662 C747.757985,821.036839 746.716071,821.067371 746.059993,820.46436" id="Fill-1" stroke="none" fill="#FFFFFF" fill-rule="evenodd"></path>
    <path d="M705.060554,783.464191 L694.51332,773.762573 C693.857242,773.159562 693.826,772.142838 694.443026,771.501661 C695.060052,770.860484 696.100404,770.829952 696.756482,771.432964 L707.303716,781.136108 C707.959794,781.739119 707.991036,782.755843 707.37401,783.39702 C706.756984,784.03667 705.71507,784.067202 705.060554,783.464191" id="Fill-2" stroke="none" fill="#FFFFFF" fill-rule="evenodd"></path>
    <path d="M697.416763,820.058621 L707.097037,809.528053 C707.698442,808.874663 708.738794,808.819705 709.408931,809.407451 C710.079068,809.995196 710.133741,811.01192 709.532336,811.666836 L699.852062,822.197404 C699.250657,822.850794 698.210305,822.905752 697.541731,822.318006 C696.871594,821.730261 696.815359,820.713537 697.416763,820.058621" id="Fill-3" stroke="none" fill="#FFFFFF" fill-rule="evenodd"></path>
    <path d="M733.41692,780.058621 L743.097194,769.528053 C743.698599,768.874663 744.738951,768.819705 745.409088,769.407451 C746.077662,769.995196 746.133898,771.01192 745.532493,771.666836 L735.852219,782.197404 C735.250814,782.850794 734.210462,782.905752 733.540325,782.318006 C732.87175,781.730261 732.815515,780.713537 733.41692,780.058621" id="Fill-4" stroke="none" fill="#FFFFFF" fill-rule="evenodd"></path>
    <path d="M720.165671,830.771545 L720.00009,816.616801 C719.990717,815.737472 720.718651,815.009279 721.618415,815.000119 C722.518179,814.989433 723.263296,815.700834 723.274231,816.580162 L723.439813,830.734906 C723.449185,831.615761 722.721251,832.342428 721.821487,832.353114 C720.921723,832.363801 720.176606,831.652399 720.165671,830.771545" id="Fill-5" stroke="none" fill="#FFFFFF" fill-rule="evenodd"></path>
    <path d="M720.165703,776.773071 L720.000122,762.618327 C719.989187,761.737472 720.717121,761.010805 721.616885,761.000119 C722.516649,760.989433 723.261766,761.700834 723.272701,762.581689 L723.438283,776.736432 C723.449217,777.615761 722.719721,778.343955 721.819957,778.353114 C720.920193,778.363801 720.175076,777.652399 720.165703,776.773071" id="Fill-6" stroke="none" fill="#FFFFFF" fill-rule="evenodd"></path>
    <path d="M686.641767,795.00001 L701.127031,795.045808 C702.026795,795.048861 702.760977,795.770949 702.757853,796.650277 C702.756291,797.529605 702.017422,798.247113 701.116096,798.24406 L686.632394,798.199788 C685.731068,798.196735 684.996886,797.474647 685.00001,796.595319 C685.003134,795.714464 685.742003,794.996956 686.641767,795.00001" id="Fill-7" stroke="none" fill="#FFFFFF" fill-rule="evenodd"></path>
    <path d="M741.641767,795.00001 L756.127031,795.044281 C757.026795,795.047335 757.760977,795.769422 757.757853,796.64875 C757.754729,797.529605 757.01586,798.247113 756.116096,798.24406 L741.630832,798.198261 C740.731068,798.195208 739.996886,797.473121 740.00001,796.593792 C740.003134,795.714464 740.742003,794.996956 741.641767,795.00001" id="Fill-8" stroke="none" fill="#FFFFFF" fill-rule="evenodd"></path>
    <path d="M721.174146,781 C712.80759,781 706,787.652974 706,795.829506 C706,804.007565 712.80759,810.660539 721.174146,810.660539 C729.542264,810.660539 736.349854,804.007565 736.349854,795.829506 C736.349854,787.652974 729.542264,781 721.174146,781 L721.174146,781 Z M733.249104,795.829506 C733.249104,802.335925 727.831775,807.630215 721.174146,807.630215 C714.516517,807.630215 709.100749,802.335925 709.100749,795.829506 C709.100749,789.323087 714.516517,784.028798 721.174146,784.028798 C727.831775,784.028798 733.249104,789.323087 733.249104,795.829506 L733.249104,795.829506 Z" id="Fill-9" stroke="none" fill="#FFFFFF" fill-rule="evenodd"></path>
</svg>