
<svg width="203px" height="101px" viewBox="619 348 203 101" version="1.1" xmlns="http://www.w3.org/2000/svg" xmlns:xlink="http://www.w3.org/1999/xlink">
    <!-- Generator: Sketch 41 (35326) - http://www.bohemiancoding.com/sketch -->
    <desc>Created with Sketch.</desc>
    <defs></defs>
    <g id="Imported-Layers-Copy-2" stroke="none" stroke-width="1" fill="none" fill-rule="evenodd" transform="translate(619.500000, 348.000000)">
        <path d="M36.3539059,72.114 L22.2154011,72.114 C12.9986075,72.114 5.50110642,64.444875 5.50110642,55.01625 C5.50110642,45.5844375 12.9986075,37.912125 22.2154011,37.912125 C22.8294342,37.912125 23.5032961,37.963125 24.3314535,38.065125 L27.0520923,38.409375 L27.3228966,35.63625 C29.0044025,18.6915 42.8406141,5.916 59.5139733,5.916 C66.7532656,5.916 73.5863514,8.4309375 79.1032023,12.7404375 C80.2934818,11.3698125 81.5404412,10.0725 82.8566762,8.8644375 C76.3069902,3.5731875 68.1041383,0.465375 59.5139733,0.465375 C40.9008994,0.465375 25.4272664,13.85925 22.3476544,32.4646875 L22.2154011,32.4646875 C10.0480999,32.4646875 0.147997711,42.5818125 0.147997711,55.01625 C0.147997711,67.4475 10.0480999,77.564625 22.2154011,77.564625 L36.4798614,77.564625 C36.3539059,76.43625 36.2657371,75.2919375 36.2657371,74.1253125 C36.2657371,73.446375 36.3098215,72.7801875 36.3539059,72.114" id="Fill-1" fill="#FFFFFF"></path>
        <g id="Group-2" transform="translate(43.000000, 4.000000)" fill="#FFFFFF">
            <path d="M125.285993,28.518875 C122.911732,28.518875 120.543769,28.7770625 118.229337,29.29025 C110.826302,11.77175 93.5515054,0.086375 74.8597093,0.086375 C51.5358998,0.086375 32.138753,16.8749375 28.2782169,40.1915 L28.1144748,40.1915 C12.8612638,40.1915 0.454647171,52.871375 0.454647171,68.4550625 C0.454647171,84.03875 12.8612638,96.7154375 28.1144748,96.7154375 L125.285993,96.7154375 C143.681794,96.7154375 158.648456,81.418625 158.648456,62.61875 C158.648456,43.8156875 143.681794,28.518875 125.285993,28.518875 L125.285993,28.518875 Z M151.938177,62.61875 C151.938177,77.6541875 139.981851,89.884625 125.285993,89.884625 L28.1144748,89.884625 C16.5612066,89.884625 7.1617775,80.2743125 7.1617775,68.4550625 C7.1617775,56.6358125 16.5612066,47.0223125 28.1144748,47.0223125 C28.8828033,47.0223125 29.7267051,47.082875 30.765838,47.2135625 L34.1729343,47.643875 L34.516163,44.1663125 C36.6227687,22.9311875 53.9668409,6.9171875 74.8597093,6.9171875 C91.9518706,6.9171875 107.29325,18.0096875 113.036821,34.5145625 L114.120038,37.6319375 L117.212246,36.627875 C119.838418,35.78 122.552759,35.352875 125.285993,35.352875 C139.981851,35.352875 151.938177,47.5833125 151.938177,62.61875 L151.938177,62.61875 Z" id="Fill-2"></path>
        </g>
    </g>
</svg>