
<svg width="84px" height="62px" viewBox="961 761 84 62" version="1.1" xmlns="http://www.w3.org/2000/svg" xmlns:xlink="http://www.w3.org/1999/xlink">
    <!-- Generator: Sketch 41 (35326) - http://www.bohemiancoding.com/sketch -->
    <desc>Created with Sketch.</desc>
    <defs></defs>
    <path d="M1032.13066,796.837732 C1031.21606,796.837732 1030.30293,796.936003 1029.41032,797.131079 C1026.55514,790.454485 1019.89499,786 1012.68815,786 C1003.69461,786 996.21661,792.399381 994.727459,801.28635 L994.664434,801.28635 C988.784045,801.28635 984,806.119254 984,812.061012 C984,817.999837 988.784045,822.831274 994.664434,822.831274 L1032.13066,822.831274 C1039.22318,822.831274 1044.99364,817.000988 1044.99364,809.834503 C1044.99364,802.668018 1039.22318,796.837732 1032.13066,796.837732 L1032.13066,796.837732 Z M1042.40668,809.834503 C1042.40668,815.565051 1037.79705,820.227813 1032.13066,820.227813 L994.664434,820.227813 C990.210171,820.227813 986.586961,816.5639 986.586961,812.061012 C986.586961,807.555191 990.210171,803.889811 994.664434,803.889811 C994.961971,803.889811 995.287356,803.913279 995.687492,803.963148 L997.002225,804.127423 L997.134138,802.801491 C997.94467,794.708027 1004.63266,788.604928 1012.68815,788.604928 C1019.27793,788.604928 1025.1935,792.830602 1027.40817,799.122911 L1027.8259,800.310969 L1029.01751,799.92815 C1030.03031,799.605468 1031.07682,799.44266 1032.13066,799.44266 C1037.79705,799.44266 1042.40668,804.103955 1042.40668,809.834503 L1042.40668,809.834503 Z" id="Fill-1" stroke="none" fill="#FFFFFF" fill-rule="evenodd"></path>
    <path d="M979.56878,780.58877 C980.080309,781.163732 980.968524,781.216534 981.543078,780.706109 C982.119098,780.194217 982.171863,779.305374 981.660334,778.730412 L973.442154,769.467958 C972.93209,768.892996 972.043876,768.840194 971.467856,769.352085 C970.893302,769.862511 970.840536,770.751354 971.3506,771.327782 L979.56878,780.58877" id="Fill-2" stroke="none" fill="#FFFFFF" fill-rule="evenodd"></path>
    <path d="M978.505083,803.37257 L969.444125,811.809251 C968.881297,812.334343 968.849051,813.223187 969.372306,813.787881 C969.897027,814.351109 970.786707,814.383377 971.349536,813.858284 L980.410493,805.421604 C980.973322,804.897978 981.005567,804.007668 980.482313,803.44444 C979.957592,802.881213 979.067912,802.848944 978.505083,803.37257" id="Fill-3" stroke="none" fill="#FFFFFF" fill-rule="evenodd"></path>
    <path d="M1014.4821,771.44444 C1013.95738,770.881213 1013.0677,770.848944 1012.50487,771.37257 L1003.44391,779.809251 C1002.88109,780.334343 1002.84884,781.223187 1003.37356,781.787881 C1003.89682,782.351109 1004.7865,782.383377 1005.34932,781.858284 L1014.41028,773.421604 C1014.97311,772.897978 1015.00536,772.007668 1014.4821,771.44444" id="Fill-4" stroke="none" fill="#FFFFFF" fill-rule="evenodd"></path>
    <path d="M993.289715,776.142499 C994.056276,776.202635 994.731964,775.623273 994.792057,774.856169 L995.757954,762.509163 C995.818048,761.742059 995.239096,761.064426 994.472535,761.004289 C993.705974,760.944153 993.02882,761.523515 992.968727,762.290619 L992.004296,774.637625 C991.944202,775.406196 992.521688,776.082363 993.289715,776.142499" id="Fill-5" stroke="none" fill="#FFFFFF" fill-rule="evenodd"></path>
    <path d="M976.114556,790.675367 L976.114556,790.675367 C976.18491,789.909729 975.616218,789.224762 974.851123,789.152892 L962.527517,788.005902 C961.760956,787.935499 961.076474,788.503127 961.00612,789.270231 C960.934301,790.037335 961.502993,790.722302 962.268088,790.792706 L974.591694,791.939695 C975.358255,792.011566 976.042737,791.442471 976.114556,790.675367" id="Fill-6" stroke="none" fill="#FFFFFF" fill-rule="evenodd"></path>
    <path d="M981.690652,791.053355 C982.19925,785.382943 987.222204,781.18367 992.8886,781.692629 C995.751113,781.950775 998.235474,783.361777 999.929823,785.425478 C1000.54688,784.818249 1001.21964,784.240354 1001.94956,783.709394 C999.819896,781.133801 996.706749,779.373715 993.124578,779.052499 C986.004207,778.413001 979.691437,783.690327 979.052392,790.815743 C978.639065,795.421302 980.70277,799.677778 984.131043,802.292973 C984.517987,801.627073 985.039777,800.899571 985.733053,800.186736 C983.005385,798.105434 981.362335,794.717268 981.690652,791.053355" id="Fill-7" stroke="none" fill="#FFFFFF" fill-rule="evenodd"></path>
</svg>