


<svg width="75px" height="62px" viewBox="394 766 75 62" version="1.1" xmlns="http://www.w3.org/2000/svg" xmlns:xlink="http://www.w3.org/1999/xlink">
    <!-- Generator: Sketch 41 (35326) - http://www.bohemiancoding.com/sketch -->
    <desc>Created with Sketch.</desc>
    <defs></defs>
    <path d="M452.862096,779.088794 C451.743715,779.088794 450.626722,779.208095 449.534704,779.442582 C446.043579,771.379501 437.898544,766 429.084701,766 C418.086823,766 408.941351,773.728491 407.119472,784.461439 L407.043156,784.461439 C399.851382,784.461439 394,790.298945 394,797.473441 C394,804.647938 399.851382,810.484073 407.043156,810.484073 L452.862096,810.484073 C461.535795,810.484073 468.592975,803.441218 468.592975,794.785748 C468.592975,786.130277 461.535795,779.088794 452.862096,779.088794 L452.862096,779.088794 Z M465.429316,794.785748 C465.429316,801.70793 459.793007,807.338374 452.862096,807.338374 L407.043156,807.338374 C401.595557,807.338374 397.163659,802.913279 397.163659,797.473441 C397.163659,792.032233 401.595557,787.605766 407.043156,787.605766 C407.406699,787.605766 407.803544,787.634563 408.291968,787.693527 L409.900162,787.893733 L410.06112,786.292087 C411.05462,776.516287 419.232956,769.144327 429.084701,769.144327 C437.145094,769.144327 444.378495,774.249574 447.085644,781.849165 L447.597657,783.283516 L449.055993,782.821397 C450.293705,782.431956 451.574432,782.234493 452.862096,782.234493 C459.793007,782.234493 465.429316,787.864937 465.429316,794.785748 L465.429316,794.785748 Z" id="Fill-1" stroke="none" fill="#FFFFFF" fill-rule="evenodd"></path>
    <path d="M407.197809,819.227965 C408.529876,821.631806 409.861943,824.034275 411.195397,826.438115 C412.122294,828.111067 414.711499,826.617752 413.783215,824.943428 C412.451148,822.539588 411.119081,820.135748 409.785626,817.731907 C408.85873,816.058955 406.269525,817.552271 407.197809,819.227965" id="Fill-2" stroke="none" fill="#FFFFFF" fill-rule="evenodd"></path>
    <path d="M422.198256,819.227965 C423.530323,821.631806 424.86239,824.034275 426.194457,826.438115 C427.122741,828.111067 429.711947,826.617752 428.783662,824.943428 C427.451595,822.539588 426.119528,820.135748 424.786074,817.731907 C423.859177,816.058955 421.268585,817.552271 422.198256,819.227965" id="Fill-3" stroke="none" fill="#FFFFFF" fill-rule="evenodd"></path>
    <path d="M438.197727,819.227965 C439.531181,821.631806 440.863248,824.034275 442.195315,826.438115 C443.122212,828.111067 445.712804,826.617752 444.78452,824.943428 C443.452453,822.539588 442.118999,820.135748 440.786932,817.731907 C439.860035,816.058955 437.269442,817.552271 438.197727,819.227965" id="Fill-4" stroke="none" fill="#FFFFFF" fill-rule="evenodd"></path>
    <path d="M453.197804,819.227965 C454.529871,821.631806 455.863326,824.034275 457.195393,826.438115 C458.122289,828.111067 460.712882,826.617752 459.784598,824.943428 C458.451143,822.539588 457.119076,820.135748 455.787009,817.731907 C454.858725,816.058955 452.26952,817.552271 453.197804,819.227965" id="Fill-5" stroke="none" fill="#FFFFFF" fill-rule="evenodd"></path>
</svg>