<svg width="16px" height="29px" viewBox="38 906 16 29" version="1.1" xmlns="http://www.w3.org/2000/svg" xmlns:xlink="http://www.w3.org/1999/xlink">
    <defs></defs>
    <g id="Group-2" stroke="none" stroke-width="1" fill="none" fill-rule="evenodd" transform="translate(38.000000, 906.000000)">
        <path d="M15.1212075,0.00597938144 L11.3581887,0 C7.13056604,0 4.39849057,2.77592784 4.39849057,7.07241237 L4.39849057,10.333268 L0.614943396,10.333268 C0.288,10.333268 0.023245283,10.5957629 0.023245283,10.9195464 L0.023245283,15.6441546 C0.023245283,15.9679381 0.288301887,16.230134 0.614943396,16.230134 L4.39849057,16.230134 L4.39849057,28.1518247 C4.39849057,28.4756082 4.66324528,28.7378041 4.99018868,28.7378041 L9.92664151,28.7378041 C10.2535849,28.7378041 10.5183396,28.4753093 10.5183396,28.1518247 L10.5183396,16.230134 L14.9421887,16.230134 C15.2691321,16.230134 15.5338868,15.9679381 15.5338868,15.6441546 L15.5356981,10.9195464 C15.5356981,10.7640825 15.4732075,10.6151959 15.3624151,10.5051753 C15.2516226,10.3951546 15.1006792,10.333268 14.9436981,10.333268 L10.5183396,10.333268 L10.5183396,7.569 C10.5183396,6.24038144 10.8380377,5.56590722 12.5856604,5.56590722 L15.1206038,5.56501031 C15.4472453,5.56501031 15.712,5.30251546 15.712,4.97903093 L15.712,0.591958763 C15.712,0.268773196 15.4475472,0.00657731959 15.1212075,0.00597938144 Z" id="Shape" fill="#A970FF"></path>
    </g>
</svg>