<svg width="44px" height="28px" viewBox="128 908 44 28" version="1.1" xmlns="http://www.w3.org/2000/svg" xmlns:xlink="http://www.w3.org/1999/xlink">
    <defs></defs>
    <g id="Group-4" stroke="none" stroke-width="1" fill="none" fill-rule="evenodd" transform="translate(129.000000, 908.000000)">
        <path d="M0.00836759807,13.7993219 C-0.258468018,6.69387509 5.89524431,0.127577219 12.927806,0.0423857299 C16.512121,-0.266805759 19.9992443,1.14093892 22.7117786,3.43693892 C21.5990799,4.67430062 20.4669429,5.89736445 19.2576416,7.04238573 C16.869669,5.57506658 13.9945594,4.45685382 11.2036827,5.4499602 C6.70223061,6.74630062 3.97614842,12.1217049 5.64195664,16.5754921 C7.02149089,21.2270666 12.6156142,23.7798325 16.9998471,21.82579 C19.2700114,21.0036623 20.7667649,18.8851942 21.4235457,16.6088538 C18.8217512,16.5564283 16.2193676,16.5891942 13.6175731,16.5165134 C13.6110936,14.9508964 13.6046142,13.3912368 13.6110936,11.8256198 C17.9499703,11.8190666 22.2953265,11.8059602 26.6406827,11.8452793 C26.9075183,15.6812793 26.3479292,19.7865559 23.8822032,22.8653645 C20.5058197,27.260173 14.2678744,28.5499602 9.19328541,26.8258751 C3.80768267,25.0368538 -0.10885158,19.5494496 0.00836759807,13.7993219 Z" id="Shape" fill="#A970FF"></path>
        <path d="M35.1421918,7.74468085 L39.0121918,7.74468085 C39.0192603,9.05412766 39.0316301,10.3701277 39.0386986,11.6789787 C40.3328219,11.6920851 41.6340137,11.6986383 42.928726,11.7051915 L42.928726,15.626383 C41.6346027,15.6329362 40.333411,15.6394894 39.0386986,15.6460426 C39.0257397,16.9620426 39.0192603,18.2708936 39.0121918,19.5868936 C37.7180685,19.5803404 36.4227671,19.5868936 35.1351233,19.5868936 C35.1227534,18.2708936 35.1227534,16.9620426 35.1092055,15.6525957 C33.8150822,15.6388936 32.5138904,15.6329362 31.2191781,15.6257872 L31.2191781,11.7045957 C32.5138904,11.6980426 33.8086027,11.6914894 35.1092055,11.678383 C35.1156849,10.3701277 35.1286438,9.05412766 35.1421918,7.74468085 Z" id="Shape" fill="#A970FF"></path>
    </g>
</svg>