<svg width="28px" height="25px" viewBox="0 0 28 25" version="1.1" xmlns="http://www.w3.org/2000/svg" xmlns:xlink="http://www.w3.org/1999/xlink">
    <defs></defs>
    <g id="Group-Copy" stroke="none" stroke-width="1" fill="none" fill-rule="evenodd">
        <path d="M27.6649573,6.69047619 C26.8752137,2.73809524 24.0512821,0.19047619 20.4136752,0.19047619 C18.3794872,0.19047619 16.1777778,1.02380952 14.0239316,2.5952381 C11.8461538,0.976190476 9.64444444,0.142857143 7.58632479,0.142857143 C3.94871795,0.142857143 1.1008547,2.71428571 0.335042735,6.71428571 C-0.813675214,12.6428571 2.87179487,20.5238095 13.6649573,24.8095238 C13.7846154,24.8571429 13.9042735,24.8809524 14.0239316,24.8809524 C14.1435897,24.8809524 14.2632479,24.8571429 14.382906,24.8095238 C25.1521368,20.4285714 28.8136752,12.5714286 27.6649573,6.69047619 L27.6649573,6.69047619 Z M14.0239316,22.8571429 C4.54700855,18.952381 1.26837607,12.1428571 2.24957265,7.07142857 C2.82393162,4.04761905 4.92991453,2.07142857 7.58632479,2.07142857 C9.38119658,2.07142857 11.391453,2.92857143 13.4017094,4.57142857 C13.7606838,4.85714286 14.2632479,4.85714286 14.6222222,4.57142857 C16.6324786,2.97619048 18.6188034,2.14285714 20.4136752,2.14285714 C23.0700855,2.14285714 25.1521368,4.07142857 25.7504274,7.07142857 C26.7316239,12.0952381 23.4769231,18.8809524 14.0239316,22.8571429 L14.0239316,22.8571429 Z" id="Shape" fill="#FFFFFF"></path>
    </g>
</svg>