<svg width="32px" height="26px" viewBox="79 909 32 26" version="1.1" xmlns="http://www.w3.org/2000/svg" xmlns:xlink="http://www.w3.org/1999/xlink">
    <defs></defs>
    <g id="Group-3" stroke="none" stroke-width="1" fill="none" fill-rule="evenodd" transform="translate(79.000000, 909.000000)">
        <path d="M32,3.09379116 C30.8222222,3.61488755 29.5584837,3.96828916 28.2306928,4.12606426 C29.5864575,3.31541767 30.6242614,2.02961847 31.1161307,0.502196787 C29.8443922,1.25290763 28.4406275,1.79802008 26.9448889,2.09352209 C25.7471373,0.817694779 24.043451,0.0230240964 22.1537778,0.0230240964 C18.5284706,0.0230240964 15.5890196,2.95804819 15.5890196,6.57591165 C15.5890196,7.08902008 15.6470065,7.59017269 15.7590065,8.06939759 C10.3040523,7.79582329 5.46698039,5.18626908 2.22959477,1.22095582 C1.66368627,2.18734137 1.34175163,3.31338153 1.34175163,4.51538554 C1.34175163,6.7895502 2.50154248,8.79614458 4.26122876,9.97011245 C3.18541176,9.93419277 2.17359477,9.63869076 1.28779085,9.14751004 L1.28779085,9.22937349 C1.28779085,12.4039839 3.55137255,15.0534779 6.55278431,15.65649 C6.00287582,15.804241 5.42300654,15.8861044 4.82311111,15.8861044 C4.39921569,15.8861044 3.98928105,15.8441807 3.58734641,15.7643012 C4.4231634,18.3698876 6.8467451,20.2646506 9.71822222,20.3165984 C7.47262745,22.0736345 4.64115033,23.1178635 1.56575163,23.1178635 C1.03586928,23.1178635 0.513934641,23.0859116 5.22875816e-05,23.028012 C2.90551634,24.8908755 6.35487582,25.9770281 10.0621699,25.9770281 C22.1378824,25.9770281 28.7386667,15.9899478 28.7386667,7.32865863 L28.7166536,6.48010843 C30.0063791,5.56159839 31.1221438,4.4075743 32,3.09379116 Z" id="Shape" fill="#A970FF"></path>
    </g>
</svg>