<?xml version="1.0" encoding="utf-8"?>
<!-- Generator: Adobe Illustrator 14.0.0, SVG Export Plug-In . SVG Version: 6.00 Build 43363)  -->
<!DOCTYPE svg PUBLIC "-//W3C//DTD SVG 1.1//EN" "http://www.w3.org/Graphics/SVG/1.1/DTD/svg11.dtd">
<svg version="1.1" id="Layer_1" xmlns="http://www.w3.org/2000/svg" xmlns:xlink="http://www.w3.org/1999/xlink" x="0px" y="0px"
	 width="366px" height="83px" viewBox="0 0 366 83" enable-background="new 0 0 366 83" xml:space="preserve">
<g>
	<path fill="#FFFFFF" d="M9.308,44.6V25.734H15.5V44.6c0,4.825,4.033,8.785,9.073,8.785c4.968,0,9.073-3.96,9.073-8.785V25.734
		h6.192V44.6c0,4.032-1.656,7.777-4.537,10.585c-2.88,2.808-6.696,4.249-10.729,4.249c-4.104,0-7.921-1.44-10.801-4.249
		S9.308,48.632,9.308,44.6z"/>
	<path fill="#FFFFFF" d="M105,41v17.713h-6.192V41c0-5.4-4.393-9.865-9.721-9.865c-5.401,0-9.793,4.465-9.793,9.865v17.713h-6.193
		V41c0-5.4-4.32-9.865-9.721-9.865c-5.329,0-9.721,4.465-9.721,9.865v17.713h-6.192V25.734h6.192v3.168
		c2.808-2.16,6.192-3.816,9.721-3.816c4.249,0,8.281,1.872,11.305,4.896c0.576,0.576,1.08,1.152,1.512,1.8
		c0.504-0.648,1.008-1.224,1.584-1.8c3.024-3.024,7.057-4.896,11.305-4.896c4.248,0,8.208,1.584,11.233,4.608
		C103.344,32.719,105,36.68,105,41z"/>
	<path fill="#FFFFFF" d="M147.549,42.224c0,4.608-1.8,8.929-5.112,12.241c-3.24,3.24-7.561,4.969-12.169,4.969
		c-4.104,0-7.993-1.944-11.089-4.537v3.816h-6.193V5.861h6.193v23.69c3.096-2.592,6.984-4.536,11.089-4.536
		c4.608,0,8.929,1.728,12.169,4.968C145.75,33.295,147.549,37.616,147.549,42.224z M141.357,42.224
		c0-6.121-4.968-11.161-11.089-11.161s-11.089,5.041-11.089,11.161c0,6.12,4.968,11.161,11.089,11.161
		S141.357,48.344,141.357,42.224z"/>
	<path fill="#FFFFFF" d="M160.723,29.119c2.088-2.304,8.208-4.104,12.025-4.104l-1.512,6.192c-5.76,0-10.513,4.393-10.513,9.937
		v17.569h-6.193V25.734h6.193V29.119z"/>
	<path fill="#FFFFFF" d="M205.941,43.736h-25.418v0.144c0.72,5.473,4.824,9.577,9.577,9.649c2.952-0.144,5.977-1.368,8.065-3.456
		l5.184,3.096c-1.296,1.44-2.736,2.664-4.392,3.672c-2.52,1.512-5.617,2.304-8.713,2.448c-4.32,0-8.281-1.8-11.161-5.041
		c-2.592-2.808-4.177-6.409-4.465-10.369c-0.072-0.504-0.072-1.008-0.072-1.512c0-1.296,0.144-2.592,0.432-3.889
		c0.648-3.024,2.088-5.76,4.104-7.993c2.88-3.168,6.913-4.968,11.161-4.968c4.32,0,8.281,1.8,11.233,4.968
		c2.016,2.232,3.528,4.969,4.104,7.993C206.085,41.432,206.013,43.088,205.941,43.736z M199.46,38.552l-0.072-0.144
		c-1.44-4.249-5.113-7.129-9.145-7.129c-3.96,0-7.632,2.88-9.145,7.129l-0.072,0.144H199.46z"/>
	<path fill="#FFFFFF" d="M212.13,58.713V5.861h6.192v52.853H212.13z"/>
	<path fill="#FFFFFF" d="M228.113,58.713V5.861h6.192v52.853H228.113z"/>
	<path fill="#FFFFFF" d="M269.083,25.734h6.192v32.979h-6.192v-3.816c-3.096,2.592-6.985,4.537-11.089,4.537
		c-4.608,0-8.929-1.729-12.241-4.969c-3.24-3.312-5.041-7.632-5.041-12.241s1.8-8.929,5.041-12.241
		c3.312-3.24,7.632-4.968,12.241-4.968c4.104,0,7.993,1.944,11.089,4.536V25.734z M269.083,42.224
		c0-6.121-4.969-11.161-11.089-11.161c-6.12,0-11.089,5.041-11.089,11.161c0,6.12,4.969,11.161,11.089,11.161
		C264.115,53.385,269.083,48.344,269.083,42.224z"/>
	<path fill="#FFFFFF" d="M318.403,42.224c0,4.608-1.8,8.929-5.113,12.241c-3.24,3.24-7.561,4.969-12.169,4.969
		c-4.104,0-7.993-1.944-11.089-4.537v22.682h-6.192V25.734h6.192v3.816c3.096-2.592,6.984-4.536,11.089-4.536
		c4.608,0,8.929,1.728,12.169,4.968C316.603,33.295,318.403,37.616,318.403,42.224z M312.21,42.224
		c0-6.121-4.968-11.161-11.089-11.161s-11.089,5.041-11.089,11.161c0,6.12,4.968,11.161,11.089,11.161S312.21,48.344,312.21,42.224z
		"/>
	<path fill="#FFFFFF" d="M358.579,42.224c0,4.608-1.801,8.929-5.112,12.241c-3.241,3.24-7.561,4.969-12.169,4.969
		c-4.104,0-7.993-1.944-11.089-4.537v22.682h-6.192V25.734h6.192v3.816c3.096-2.592,6.984-4.536,11.089-4.536
		c4.608,0,8.929,1.728,12.169,4.968C356.778,33.295,358.579,37.616,358.579,42.224z M352.386,42.224
		c0-6.121-4.968-11.161-11.089-11.161s-11.089,5.041-11.089,11.161c0,6.12,4.968,11.161,11.089,11.161
		S352.386,48.344,352.386,42.224z"/>
</g>
</svg>
